<svg xmlns="http://www.w3.org/2000/svg" xmlns:xlink="http://www.w3.org/1999/xlink" width="1584" zoomAndPan="magnify" viewBox="0 0 1188 296.999993" height="396" preserveAspectRatio="xMidYMid meet" version="1.0"><defs><g/><clipPath id="fa54a60331"><path d="M 0.679688 0 L 727 0 L 727 294 L 0.679688 294 Z M 0.679688 0 " clip-rule="nonzero"/></clipPath><clipPath id="ece0035a97"><rect x="0" width="727" y="0" height="294"/></clipPath><clipPath id="685e21260f"><path d="M 731 107 L 1126.28125 107 L 1126.28125 261 L 731 261 Z M 731 107 " clip-rule="nonzero"/></clipPath><clipPath id="68bac8c334"><path d="M 12 0.0390625 L 102 0.0390625 L 102 123 L 12 123 Z M 12 0.0390625 " clip-rule="nonzero"/></clipPath><clipPath id="093671b704"><rect x="0" width="396" y="0" height="154"/></clipPath><clipPath id="c51cec5216"><rect x="0" width="1127" y="0" height="294"/></clipPath></defs><g transform="matrix(1, 0, 0, 1, 37, 0)"><g clip-path="url(#c51cec5216)"><g clip-path="url(#fa54a60331)"><g transform="matrix(1, 0, 0, 1, -0.000000000000007105, 0)"><g clip-path="url(#ece0035a97)"><g fill="#b4b4b4" fill-opacity="1"><g transform="translate(0.889623, 233.237834)"><g><path d="M 91 -168.09375 C 102.851562 -168.09375 113.222656 -165.847656 122.109375 -161.359375 C 130.992188 -156.878906 138.316406 -150.675781 144.078125 -142.75 C 149.835938 -134.832031 154.117188 -125.828125 156.921875 -115.734375 C 159.722656 -105.648438 161.125 -95.085938 161.125 -84.046875 C 161.125 -68.671875 158.601562 -54.617188 153.5625 -41.890625 C 148.519531 -29.171875 140.832031 -19.007812 130.5 -11.40625 C 120.175781 -3.800781 107.007812 0 91 0 L 29.78125 0 C 27.851562 0 26.171875 -0.71875 24.734375 -2.15625 C 23.296875 -3.601562 22.578125 -5.285156 22.578125 -7.203125 L 22.578125 -160.890625 C 22.578125 -162.804688 23.296875 -164.484375 24.734375 -165.921875 C 26.171875 -167.367188 27.851562 -168.09375 29.78125 -168.09375 Z M 88.609375 -14.171875 C 102.210938 -14.171875 113.175781 -17.289062 121.5 -23.53125 C 129.820312 -29.769531 135.941406 -38.210938 139.859375 -48.859375 C 143.785156 -59.503906 145.75 -71.234375 145.75 -84.046875 C 145.75 -93.328125 144.664062 -102.171875 142.5 -110.578125 C 140.34375 -118.984375 136.984375 -126.425781 132.421875 -132.90625 C 127.859375 -139.394531 121.9375 -144.519531 114.65625 -148.28125 C 107.375 -152.039062 98.691406 -153.921875 88.609375 -153.921875 L 36.015625 -153.921875 L 37.703125 -156.078125 L 37.703125 -11.765625 L 36.265625 -14.171875 Z M 88.609375 -14.171875 "/></g></g></g><g fill="#b4b4b4" fill-opacity="1"><g transform="translate(195.626743, 233.237834)"><g><path d="M 29.78125 -168.09375 L 117.90625 -168.09375 C 119.820312 -168.09375 121.5 -167.410156 122.9375 -166.046875 C 124.382812 -164.679688 125.109375 -162.960938 125.109375 -160.890625 C 125.109375 -158.804688 124.382812 -157.125 122.9375 -155.84375 C 121.5 -154.5625 119.820312 -153.921875 117.90625 -153.921875 L 35.296875 -153.921875 L 37.703125 -158 L 37.703125 -90.53125 L 35.0625 -93.65625 L 107.09375 -93.65625 C 109.019531 -93.65625 110.703125 -92.929688 112.140625 -91.484375 C 113.578125 -90.046875 114.296875 -88.363281 114.296875 -86.4375 C 114.296875 -84.363281 113.578125 -82.6875 112.140625 -81.40625 C 110.703125 -80.125 109.019531 -79.484375 107.09375 -79.484375 L 35.53125 -79.484375 L 37.703125 -81.875 L 37.703125 -12.734375 L 36.5 -14.171875 L 117.90625 -14.171875 C 119.820312 -14.171875 121.5 -13.445312 122.9375 -12 C 124.382812 -10.5625 125.109375 -8.882812 125.109375 -6.96875 C 125.109375 -4.882812 124.382812 -3.203125 122.9375 -1.921875 C 121.5 -0.640625 119.820312 0 117.90625 0 L 29.78125 0 C 27.851562 0 26.171875 -0.71875 24.734375 -2.15625 C 23.296875 -3.601562 22.578125 -5.285156 22.578125 -7.203125 L 22.578125 -160.890625 C 22.578125 -162.804688 23.296875 -164.484375 24.734375 -165.921875 C 26.171875 -167.367188 27.851562 -168.09375 29.78125 -168.09375 Z M 29.78125 -168.09375 "/></g></g></g><g fill="#b4b4b4" fill-opacity="1"><g transform="translate(354.105865, 233.237834)"><g><path d="M 30.25 -168.09375 C 32.175781 -168.09375 33.898438 -167.367188 35.421875 -165.921875 C 36.941406 -164.484375 37.703125 -162.722656 37.703125 -160.640625 L 37.703125 -7.4375 C 37.535156 -5.363281 36.691406 -3.601562 35.171875 -2.15625 C 33.648438 -0.71875 31.929688 0 30.015625 0 C 27.773438 0 25.972656 -0.71875 24.609375 -2.15625 C 23.253906 -3.601562 22.578125 -5.363281 22.578125 -7.4375 L 22.578125 -160.640625 C 22.578125 -162.722656 23.296875 -164.484375 24.734375 -165.921875 C 26.171875 -167.367188 28.007812 -168.09375 30.25 -168.09375 Z M 142.875 -168.09375 C 145.113281 -168.09375 146.910156 -167.367188 148.265625 -165.921875 C 149.628906 -164.484375 150.3125 -162.722656 150.3125 -160.640625 L 150.3125 -7.4375 C 150.15625 -5.363281 149.394531 -3.601562 148.03125 -2.15625 C 146.675781 -0.71875 144.878906 0 142.640625 0 C 140.554688 0 138.789062 -0.71875 137.34375 -2.15625 C 135.90625 -3.601562 135.1875 -5.363281 135.1875 -7.4375 L 135.1875 -160.640625 C 135.1875 -162.722656 135.945312 -164.484375 137.46875 -165.921875 C 138.988281 -167.367188 140.789062 -168.09375 142.875 -168.09375 Z M 29.0625 -92.921875 L 143.109375 -92.921875 L 142.875 -79 L 28.09375 -79 Z M 29.0625 -92.921875 "/></g></g></g><g fill="#b4b4b4" fill-opacity="1"><g transform="translate(549.08315, 233.237834)"><g><path d="M 78.765625 -149.59375 L 20.40625 -4.5625 C 19.769531 -2.957031 18.890625 -1.753906 17.765625 -0.953125 C 16.648438 -0.160156 15.367188 0.234375 13.921875 0.234375 C 11.679688 0.234375 10 -0.363281 8.875 -1.5625 C 7.757812 -2.757812 7.125 -4.238281 6.96875 -6 C 6.800781 -6.800781 6.878906 -7.765625 7.203125 -8.890625 L 70.59375 -164 C 71.394531 -165.757812 72.394531 -167 73.59375 -167.71875 C 74.800781 -168.445312 76.203125 -168.8125 77.796875 -168.8125 C 79.398438 -168.8125 80.800781 -168.367188 82 -167.484375 C 83.195312 -166.609375 84.117188 -165.445312 84.765625 -164 L 147.921875 -9.609375 C 148.234375 -8.648438 148.390625 -7.6875 148.390625 -6.71875 C 148.390625 -4.476562 147.671875 -2.757812 146.234375 -1.5625 C 144.796875 -0.363281 143.113281 0.234375 141.1875 0.234375 C 139.59375 0.234375 138.191406 -0.203125 136.984375 -1.078125 C 135.785156 -1.960938 134.867188 -3.125 134.234375 -4.5625 L 74.4375 -150.5625 Z M 34.34375 -48.5 L 40.34375 -62.671875 L 114.78125 -62.671875 L 117.65625 -48.5 Z M 34.34375 -48.5 "/></g></g></g></g></g></g><g clip-path="url(#685e21260f)"><g transform="matrix(1, 0, 0, 1, 731, 107)"><g clip-path="url(#093671b704)"><g clip-path="url(#68bac8c334)"><g fill="#f4482b" fill-opacity="1"><g transform="translate(1.497237, 120.963182)"><g><path d="M 55.15625 1.09375 C 49.050781 1.09375 43.304688 -0.0078125 37.921875 -2.21875 C 32.535156 -4.425781 27.816406 -7.554688 23.765625 -11.609375 C 19.648438 -15.660156 16.457031 -20.347656 14.1875 -25.671875 C 11.925781 -30.992188 10.796875 -36.679688 10.796875 -42.734375 L 10.796875 -76.296875 C 10.796875 -82.347656 11.925781 -88.035156 14.1875 -93.359375 C 16.457031 -98.679688 19.648438 -103.367188 23.765625 -107.421875 C 27.816406 -111.410156 32.535156 -114.507812 37.921875 -116.71875 C 43.304688 -118.925781 49.050781 -120.03125 55.15625 -120.03125 C 61.207031 -120.03125 66.925781 -118.925781 72.3125 -116.71875 C 77.695312 -114.507812 82.445312 -111.410156 86.5625 -107.421875 C 90.664062 -103.367188 93.851562 -98.679688 96.125 -93.359375 C 98.394531 -88.035156 99.53125 -82.347656 99.53125 -76.296875 L 99.53125 -42.734375 C 99.53125 -36.679688 98.394531 -30.992188 96.125 -25.671875 C 93.851562 -20.347656 90.664062 -15.660156 86.5625 -11.609375 C 82.445312 -7.554688 77.695312 -4.425781 72.3125 -2.21875 C 66.925781 -0.0078125 61.207031 1.09375 55.15625 1.09375 Z M 55.15625 -15.15625 C 59.09375 -15.15625 62.769531 -15.832031 66.1875 -17.1875 C 69.601562 -18.550781 72.613281 -20.472656 75.21875 -22.953125 C 77.8125 -25.429688 79.816406 -28.347656 81.234375 -31.703125 C 82.660156 -35.066406 83.375 -38.710938 83.375 -42.640625 L 83.375 -76.390625 C 83.375 -80.265625 82.660156 -83.894531 81.234375 -87.28125 C 79.816406 -90.664062 77.8125 -93.597656 75.21875 -96.078125 C 72.613281 -98.554688 69.601562 -100.476562 66.1875 -101.84375 C 62.769531 -103.207031 59.09375 -103.890625 55.15625 -103.890625 C 51.226562 -103.890625 47.554688 -103.207031 44.140625 -101.84375 C 40.722656 -100.476562 37.710938 -98.554688 35.109375 -96.078125 C 32.503906 -93.597656 30.492188 -90.664062 29.078125 -87.28125 C 27.660156 -83.894531 26.953125 -80.265625 26.953125 -76.390625 L 26.953125 -42.640625 C 26.953125 -38.710938 27.660156 -35.066406 29.078125 -31.703125 C 30.492188 -28.347656 32.503906 -25.429688 35.109375 -22.953125 C 37.710938 -20.472656 40.722656 -18.550781 44.140625 -17.1875 C 47.554688 -15.832031 51.226562 -15.15625 55.15625 -15.15625 Z M 55.15625 -15.15625 "/></g></g></g></g><g fill="#f4482b" fill-opacity="1"><g transform="translate(139.785415, 120.963182)"><g><path d="M 19.953125 0.546875 C 17.660156 0.546875 15.710938 -0.222656 14.109375 -1.765625 C 12.503906 -3.304688 11.703125 -5.226562 11.703125 -7.53125 L 11.703125 -74.9375 C 11.703125 -81.050781 12.65625 -86.828125 14.5625 -92.265625 C 16.46875 -97.710938 19.203125 -102.460938 22.765625 -106.515625 C 26.515625 -110.742188 31.035156 -114.023438 36.328125 -116.359375 C 41.628906 -118.691406 47.546875 -119.859375 54.078125 -119.859375 C 60.847656 -119.859375 66.96875 -118.691406 72.4375 -116.359375 C 77.914062 -114.023438 82.625 -110.710938 86.5625 -106.421875 C 90.3125 -102.191406 93.179688 -97.25 95.171875 -91.59375 C 97.171875 -85.9375 98.171875 -79.84375 98.171875 -73.3125 L 98.171875 -7.53125 C 98.171875 -5.226562 97.367188 -3.304688 95.765625 -1.765625 C 94.160156 -0.222656 92.207031 0.546875 89.90625 0.546875 C 87.613281 0.546875 85.664062 -0.222656 84.0625 -1.765625 C 82.457031 -3.304688 81.65625 -5.226562 81.65625 -7.53125 L 81.65625 -73.03125 C 81.65625 -81.988281 79.175781 -89.3125 74.21875 -95 C 69.257812 -100.625 62.695312 -103.4375 54.53125 -103.4375 C 50.59375 -103.4375 47.003906 -102.753906 43.765625 -101.390625 C 40.535156 -100.023438 37.742188 -98.070312 35.390625 -95.53125 C 30.609375 -90.269531 28.21875 -83.015625 28.21875 -73.765625 L 28.21875 -7.53125 C 28.21875 -5.226562 27.414062 -3.304688 25.8125 -1.765625 C 24.207031 -0.222656 22.253906 0.546875 19.953125 0.546875 Z M 19.953125 0.546875 "/></g></g></g><g fill="#f4482b" fill-opacity="1"><g transform="translate(275.896135, 120.963182)"><g><path d="M 78.578125 0 L 19.5 0 C 17.320312 -0.175781 15.535156 -1.019531 14.140625 -2.53125 C 12.753906 -4.050781 12.0625 -5.898438 12.0625 -8.078125 L 12.0625 -111.78125 C 12.0625 -114.019531 12.847656 -115.910156 14.421875 -117.453125 C 15.992188 -118.992188 17.898438 -119.765625 20.140625 -119.765625 L 78.578125 -119.765625 C 80.804688 -119.765625 82.675781 -118.992188 84.1875 -117.453125 C 85.707031 -115.910156 86.46875 -114.019531 86.46875 -111.78125 C 86.46875 -109.476562 85.707031 -107.539062 84.1875 -105.96875 C 82.675781 -104.394531 80.804688 -103.609375 78.578125 -103.609375 L 28.125 -103.609375 L 28.125 -68.765625 L 64.875 -68.765625 C 67.164062 -68.765625 69.066406 -68.007812 70.578125 -66.5 C 72.097656 -64.988281 72.859375 -63.113281 72.859375 -60.875 C 72.859375 -58.632812 72.097656 -56.773438 70.578125 -55.296875 C 69.066406 -53.816406 67.164062 -53.078125 64.875 -53.078125 L 28.125 -53.078125 L 28.125 -15.96875 L 78.578125 -15.96875 C 80.804688 -15.96875 82.675781 -15.195312 84.1875 -13.65625 C 85.707031 -12.113281 86.46875 -10.222656 86.46875 -7.984375 C 86.46875 -5.628906 85.707031 -3.707031 84.1875 -2.21875 C 82.675781 -0.738281 80.804688 0 78.578125 0 Z M 78.578125 0 "/></g></g></g></g></g></g></g></g></svg>